{"title":"Gods of Egypt (2016) BRRIP 1080P NO CINAVIA","uid":15166708,"size":6263010111,"categoryP":"video","categoryS":"hd___movies","magnet":"?xt=urn:btih:0b75541141f674634d3c8e2a385417be6c1fc277&amp;dn=Gods+of+Egypt+%282016%29+BRRIP+1080P+NO+CINAVIA&amp;tr=udp%3A%2F%2Ftracker.leechers-paradise.org%3A6969&amp;tr=udp%3A%2F%2Fzer0day.ch%3A1337&amp;tr=udp%3A%2F%2Fopen.demonii.com%3A1337&amp;tr=udp%3A%2F%2Ftracker.coppersurfer.tk%3A6969&amp;tr=udp%3A%2F%2Fexodus.desync.com%3A6969","seeders":6,"leechers":1,"uploader":"jmanwf","files":5,"time":1467354427,"description":"Mortal hero Bek teams with the god Horus in an alliance against Set, the merciless god of darkness, who has usurped Egypt's throne, plunging the once peaceful and prosperous empire into chaos and conflict.\r\n\r\n\r\n\r\nVideo\r\nID                                       : 1\r\nFormat                                   : MPEG-4 Visual\r\nFormat profile                           : Advanced   \r\nFormat settings, BVOP                    : No\r\nFormat settings, QPel                    : No\r\nFormat settings, GMC                     : No warppoints\r\nFormat settings, Matrix                  : Default (H.263)\r\nCodec ID                                 : V_MPEG4/ISO/ASP\r\nCodec ID/Info                            : Advanced Simple Profile\r\nDuration                                 : 2h 7mn\r\nBit rate                                 : 5 975 Kbps\r\nWidth                                    : 1 920 pixels\r\nHeight                                   : 1 080 pixels\r\nDisplay aspect ratio                     : 16:9\r\nFrame rate mode                          : Constant\r\nFrame rate                               : 23.976 (24000/1001) fps\r\nColor space                              : YUV\r\nChroma subsampling                       : 4:2:0\r\nBit depth                                : 8 bits\r\nScan type                                : Progressive\r\nCompression mode                         : Lossy\r\nBits/(Pixel*Frame)                       : 0.120\r\nStream size                              : 5.30 GiB (91%)\r\nWriting library                          : Lavc56.35.101\r\nLanguage                                 : English\r\nDefault                                  : Yes\r\nForced                                   : No\r\n\r\nAudio\r\nID                                       : 2\r\nFormat                                   : AC-3\r\nFormat/Info                              : Audio Coding 3\r\nMode extension                           : CM (complete main)\r\nFormat settings, Endianness              : Big\r\nCodec ID                                 : A_AC3\r\nDuration                                 : 2h 7mn\r\nBit rate mode                            : Constant\r\nBit rate                                 : 576 Kbps\r\nChannel(s)                               : 6 channels\r\nChannel positions                        : Front: L C R, Side: L R, LFE\r\nSampling rate                            : 48.0 KHz\r\nFrame rate                               : 31.250 fps (1536 spf)\r\nCompression mode                         : Lossy\r\nStream size                              : 524 MiB (9%)\r\nLanguage                                 : English\r\nDefault                                  : Yes\r\nForced                                   : No\r\n \nhttps://s31.postimg.org/4faqz5yxn/image.jpg\r\n\r\n\r\n\r\n \nhttps://s31.postimg.org/4gkosl0rf/image.jpg\r\n\r\n\r\n\r\n \nhttps://s31.postimg.org/bl2i1m80r/image.jpg","torrent":{"xt":"urn:btih:0b75541141f674634d3c8e2a385417be6c1fc277","amp;dn":"Gods+of+Egypt+%282016%29+BRRIP+1080P+NO+CINAVIA","amp;tr":["udp%3A%2F%2Ftracker.leechers-paradise.org%3A6969","udp%3A%2F%2Fzer0day.ch%3A1337","udp%3A%2F%2Fopen.demonii.com%3A1337","udp%3A%2F%2Ftracker.coppersurfer.tk%3A6969","udp%3A%2F%2Fexodus.desync.com%3A6969"],"infoHash":"0b75541141f674634d3c8e2a385417be6c1fc277","infoHashBuffer":{"type":"Buffer","data":[11,117,84,17,65,246,116,99,77,60,142,42,56,84,23,190,108,31,194,119]},"announce":[],"urlList":[]}}